<?xml version="1.0" encoding="UTF-8"?>
<svg id="logosandtypes_com" data-name="logosandtypes com" xmlns="http://www.w3.org/2000/svg" viewBox="0 0 150 150">
  <defs>
    <style>
      .cls-1 {
        fill: none;
      }
    </style>
  </defs>
  <g id="Layer_3" data-name="Layer 3">
    <g id="Layer_2" data-name="Layer 2">
      <path id="Layer_3-2" data-name="Layer 3-2" class="cls-1" d="M0,0H150V150H0V0Z"/>
    </g>
  </g>
  <path d="M6.21,18.46c0,.08,.32,.46,.72,.9,2.06,2.14,3.97,5.89,4.95,9.69,.8,3.15,.83,4.47,.83,27.19,0,21.44,0,21.66,.39,22.79,.49,1.45,1.48,2.99,2.88,4.39,.96,.98,27.55,26.37,30.6,29.03,.03-.05-.43-.91-1.06-1.94-3.97-6.49-6.47-13.36-7.81-20.43-.05-6.55-.2-33.23-.46-34.82-1.6-9.03-5.83-15.63-12.92-20.48-.8-.52-1.42-.98-1.35-1.02,3.19,.2,11.95,2.58,15.99,4.32,2.52,.98,9.77,4.49,11.66,5.67,.71,.43,1.31,.74,1.34,.71-9.02-9.9-29.3-20.66-42.87-25.22-3.09-1.01-2.9-.96-2.9-.77h0Z"/>
  <path d="M141.62,19.15c-14.03,4.68-33.57,15.29-43.2,25.3,.03,.06,.74-.3,1.56-.76,6.02-3.4,12.99-6.41,18.74-8.02,4.24-1.18,9.43-2.19,8.77-1.69-7.44,4.65-12.45,11.51-14.07,20.48-.22,1.24-.3,4.27-.39,18.11-.13,16.03-.14,16.7-.54,18.81-.69,3.67-1.39,6.19-2.76,9.62-1.01,2.58-3.42,7.43-4.71,9.51-.63,1.01-1.12,1.86-1.07,1.89s21.81-20.65,28.73-27.12c3.2-3.03,4.07-4.3,5.1-7.07l.09-23.12c.09-22.89,.11-23.14,.5-24.89,1.06-4.66,2.66-8.02,5.07-10.66,1.34-1.58,1.6-1.47-1.84-.39h0Z"/>
  <path d="M62.96,125.77l.46,.93c2.29,3.4,8.66,8.72,11.89,11.84,0,0,11.2-10.58,11.8-11.81l.46-.95c-.01-9.86,.05-52.49-.09-54.86-5.21,3.57-9.73,8.76-12.21,13.55-1.64-3.01-3.17-5.23-5.97-8.1-2.11-2.21-5.64-5.32-6.19-5.43-.2-.08-.14,54.83-.14,54.83Z"/>
</svg>